# xmcd
#
# Track frame offsets:
#	151
#	18584
#	39959
#	57379
#	83803
#	101191
#
# Disc length: 1734 seconds
#
# Revision: 0
# Processed by: cddbd v1.5.1PL0 Copyright (c) Steve Scherf et al.
# Submitted via: dBpowerAMP V4.0
#
DISCID=4606c406
DTITLE=Jimmy Justesen Band - Jimmy Justesen Band
DYEAR=1900
DGENRE=
TTITLE0=Verden Er Stor
TTITLE1=Budolfi (I Skyggen Af...)
TTITLE2=Chevy
TTITLE3=Århus`57
TTITLE4=Savnet
TTITLE5=Søn Af En Emigrant
EXTD=
EXTT0=
EXTT1=
EXTT2=
EXTT3=
EXTT4=
EXTT5=
PLAYORDER=
